# xmcd
#
# Track frame offsets:
#  150
#  38448
#  62760
#  97734
#  127079
#  156911
#  181742
#  206227
#  238802
#  257050
#  281799
#
# Disc length: 3991 seconds
#
# Revision: 0
# Processed by: cddbd v1.5.1PL2 Copyright (c) Steve Scherf et al.
# Submitted via: Collectorz.com_Music_Collector 6.9
#
DISCID=9a0f950b
DTITLE=Mississippi Heat - One Eye Open: Live At Rosa's Lounge, Chicago
DYEAR=2005
DGENRE=Blues
TTITLE0=Rosa's Strut
TTITLE1=19 Years Old
TTITLE2=I've Got To Sleep With One Eye Open
TTITLE3=Dirty Deal
TTITLE4=Honest I Do
TTITLE5=Rock Steady
TTITLE6=Jukin'
TTITLE7=Cold, Cold Feeling
TTITLE8=Cool Twist
TTITLE9=She Ain't Your Toy
TTITLE10=Listen Here
EXTD=
EXTT0=
EXTT1=
EXTT2=
EXTT3=
EXTT4=
EXTT5=
EXTT6=
EXTT7=
EXTT8=
EXTT9=
EXTT10=
PLAYORDER=
